<svg width="281" height="54" viewBox="0 0 281 54" fill="none" xmlns="http://www.w3.org/2000/svg">
<path d="M2.06656 53C1.58656 53 1.15456 52.832 0.770563 52.496C0.434563 52.112 0.266563 51.68 0.266563 51.2V4.4C0.266563 3.872 0.434563 3.44 0.770563 3.104C1.15456 2.768 1.58656 2.6 2.06656 2.6H35.1866C35.7146 2.6 36.1466 2.768 36.4826 3.104C36.8186 3.44 36.9866 3.872 36.9866 4.4V11.672C36.9866 12.152 36.8186 12.584 36.4826 12.968C36.1466 13.304 35.7146 13.472 35.1866 13.472H12.9386V24.056H33.7466C34.2746 24.056 34.7066 24.248 35.0426 24.632C35.3786 24.968 35.5466 25.4 35.5466 25.928V33.128C35.5466 33.608 35.3786 34.04 35.0426 34.424C34.7066 34.76 34.2746 34.928 33.7466 34.928H12.9386V51.2C12.9386 51.728 12.7706 52.16 12.4346 52.496C12.0986 52.832 11.6666 53 11.1386 53H2.06656ZM45.7104 10.16C45.1824 10.16 44.7504 9.992 44.4144 9.656C44.0784 9.32 43.9104 8.888 43.9104 8.36V1.88C43.9104 1.352 44.0784 0.919998 44.4144 0.583997C44.7504 0.247998 45.1824 0.079999 45.7104 0.079999H54.3504C54.8784 0.079999 55.3104 0.247998 55.6464 0.583997C55.9824 0.919998 56.1504 1.352 56.1504 1.88V8.36C56.1504 8.888 55.9824 9.32 55.6464 9.656C55.3104 9.992 54.8784 10.16 54.3504 10.16H45.7104ZM45.7824 53C45.2544 53 44.8224 52.832 44.4864 52.496C44.1504 52.16 43.9824 51.728 43.9824 51.2V17.36C43.9824 16.832 44.1504 16.4 44.4864 16.064C44.8224 15.728 45.2544 15.56 45.7824 15.56H54.2784C54.8064 15.56 55.2384 15.728 55.5744 16.064C55.9104 16.4 56.0784 16.832 56.0784 17.36V51.2C56.0784 51.68 55.9104 52.112 55.5744 52.496C55.2384 52.832 54.8064 53 54.2784 53H45.7824ZM66.3839 53C65.8559 53 65.4239 52.832 65.0879 52.496C64.7519 52.16 64.5839 51.728 64.5839 51.2V17.36C64.5839 16.832 64.7519 16.4 65.0879 16.064C65.4239 15.728 65.8559 15.56 66.3839 15.56H74.6639C75.1919 15.56 75.6239 15.728 75.9599 16.064C76.3439 16.4 76.5359 16.832 76.5359 17.36V20.096C77.8319 18.512 79.4879 17.24 81.5039 16.28C83.5679 15.32 85.8959 14.84 88.4879 14.84C92.7119 14.84 96.1439 16.28 98.7839 19.16C101.424 21.992 102.744 25.976 102.744 31.112V51.2C102.744 51.68 102.576 52.112 102.24 52.496C101.904 52.832 101.472 53 100.944 53H91.8719C91.3919 53 90.9599 52.832 90.5759 52.496C90.2399 52.112 90.0719 51.68 90.0719 51.2V31.544C90.0719 29.288 89.5199 27.56 88.4159 26.36C87.3119 25.112 85.7279 24.488 83.6639 24.488C81.6479 24.488 80.0639 25.112 78.9119 26.36C77.7599 27.56 77.1839 29.288 77.1839 31.544V51.2C77.1839 51.68 77.0159 52.112 76.6799 52.496C76.3439 52.832 75.9119 53 75.3839 53H66.3839ZM128.562 53.72C122.61 53.72 118.026 52.304 114.81 49.472C111.594 46.64 109.842 42.656 109.554 37.52C109.506 36.896 109.482 35.816 109.482 34.28C109.482 32.744 109.506 31.664 109.554 31.04C109.842 25.952 111.642 21.992 114.954 19.16C118.266 16.28 122.802 14.84 128.562 14.84C134.37 14.84 138.93 16.28 142.242 19.16C145.554 21.992 147.354 25.952 147.642 31.04C147.69 31.664 147.714 32.744 147.714 34.28C147.714 35.816 147.69 36.896 147.642 37.52C147.354 42.656 145.602 46.64 142.386 49.472C139.17 52.304 134.562 53.72 128.562 53.72ZM128.562 44.936C130.674 44.936 132.234 44.312 133.242 43.064C134.25 41.768 134.826 39.8 134.97 37.16C135.018 36.68 135.042 35.72 135.042 34.28C135.042 32.84 135.018 31.88 134.97 31.4C134.826 28.808 134.226 26.864 133.17 25.568C132.162 24.272 130.626 23.624 128.562 23.624C124.578 23.624 122.466 26.216 122.226 31.4L122.154 34.28L122.226 37.16C122.322 39.8 122.874 41.768 123.882 43.064C124.938 44.312 126.498 44.936 128.562 44.936ZM177.761 53.72C172.961 53.72 169.241 52.112 166.601 48.896V51.2C166.601 51.68 166.433 52.112 166.097 52.496C165.761 52.832 165.329 53 164.801 53H156.665C156.185 53 155.753 52.832 155.369 52.496C155.033 52.112 154.865 51.68 154.865 51.2V3.68C154.865 3.152 155.033 2.72 155.369 2.384C155.753 2.048 156.185 1.88 156.665 1.88H165.449C165.977 1.88 166.409 2.048 166.745 2.384C167.081 2.72 167.249 3.152 167.249 3.68V19.088C169.937 16.256 173.441 14.84 177.761 14.84C182.417 14.84 186.089 16.352 188.777 19.376C191.465 22.4 192.905 26.504 193.097 31.688C193.145 32.312 193.169 33.176 193.169 34.28C193.169 35.336 193.145 36.176 193.097 36.8C192.857 42.176 191.417 46.352 188.777 49.328C186.137 52.256 182.465 53.72 177.761 53.72ZM173.873 44.072C176.129 44.072 177.737 43.4 178.697 42.056C179.705 40.712 180.281 38.864 180.425 36.512C180.521 35.552 180.569 34.808 180.569 34.28C180.569 33.752 180.521 33.008 180.425 32.048C180.281 29.696 179.705 27.848 178.697 26.504C177.737 25.16 176.129 24.488 173.873 24.488C171.761 24.488 170.153 25.136 169.049 26.432C167.945 27.728 167.345 29.36 167.249 31.328L167.177 33.992L167.249 36.728C167.393 38.888 167.969 40.664 168.977 42.056C170.033 43.4 171.665 44.072 173.873 44.072ZM211.519 53.72C208.975 53.72 206.647 53.24 204.535 52.28C202.471 51.272 200.839 49.928 199.639 48.248C198.487 46.52 197.911 44.624 197.911 42.56C197.911 39.248 199.255 36.584 201.943 34.568C204.679 32.552 208.423 31.16 213.175 30.392L222.175 29.024V28.016C222.175 26.192 221.791 24.848 221.023 23.984C220.255 23.12 218.959 22.688 217.135 22.688C216.031 22.688 215.119 22.88 214.399 23.264C213.679 23.648 212.935 24.176 212.167 24.848C211.495 25.424 210.991 25.808 210.655 26C210.511 26.384 210.247 26.576 209.863 26.576H202.015C201.535 26.576 201.127 26.432 200.791 26.144C200.503 25.808 200.383 25.424 200.431 24.992C200.479 23.696 201.103 22.256 202.303 20.672C203.551 19.088 205.423 17.72 207.919 16.568C210.463 15.416 213.583 14.84 217.279 14.84C223.183 14.84 227.551 16.16 230.383 18.8C233.215 21.392 234.631 24.896 234.631 29.312V51.2C234.631 51.68 234.463 52.112 234.127 52.496C233.791 52.832 233.359 53 232.831 53H224.479C223.999 53 223.567 52.832 223.183 52.496C222.847 52.112 222.679 51.68 222.679 51.2V48.68C221.623 50.168 220.135 51.392 218.215 52.352C216.343 53.264 214.111 53.72 211.519 53.72ZM214.903 45.512C217.111 45.512 218.887 44.792 220.231 43.352C221.623 41.912 222.319 39.8 222.319 37.016V36.008L216.199 37.088C211.879 37.856 209.719 39.368 209.719 41.624C209.719 42.824 210.223 43.784 211.231 44.504C212.239 45.176 213.463 45.512 214.903 45.512ZM244.556 53C244.028 53 243.596 52.832 243.26 52.496C242.924 52.16 242.756 51.728 242.756 51.2V17.36C242.756 16.832 242.924 16.4 243.26 16.064C243.596 15.728 244.028 15.56 244.556 15.56H252.836C253.364 15.56 253.796 15.728 254.132 16.064C254.516 16.4 254.708 16.832 254.708 17.36V20.096C256.004 18.512 257.66 17.24 259.676 16.28C261.74 15.32 264.068 14.84 266.66 14.84C270.884 14.84 274.316 16.28 276.956 19.16C279.596 21.992 280.916 25.976 280.916 31.112V51.2C280.916 51.68 280.748 52.112 280.412 52.496C280.076 52.832 279.644 53 279.116 53H270.044C269.564 53 269.132 52.832 268.748 52.496C268.412 52.112 268.244 51.68 268.244 51.2V31.544C268.244 29.288 267.692 27.56 266.588 26.36C265.484 25.112 263.9 24.488 261.836 24.488C259.82 24.488 258.236 25.112 257.084 26.36C255.932 27.56 255.356 29.288 255.356 31.544V51.2C255.356 51.68 255.188 52.112 254.852 52.496C254.516 52.832 254.084 53 253.556 53H244.556Z" fill="#3A5B62"/>
</svg>
