<svg width="63" height="64" viewBox="0 0 63 64" fill="none" xmlns="http://www.w3.org/2000/svg">
<path d="M40.0909 0.970215H14.3182C11.9414 0.970215 9.90818 2.54521 9.04909 4.81321L0.400909 27.0207C0.143182 27.7452 0 28.5012 0 29.3202V35.6202C0 39.0852 2.57727 41.9202 5.72727 41.9202H23.7968L21.0764 56.3157L20.9905 57.3237C20.9905 58.6152 21.4773 59.8122 22.2505 60.6627L25.2859 63.9702L44.1573 43.2117C45.1882 42.0777 45.8182 40.5027 45.8182 38.7702V7.27022C45.8182 3.80521 43.2409 0.970215 40.0909 0.970215ZM51.5455 0.970215V38.7702H63V0.970215H51.5455Z" fill="white"/>
</svg>
