<svg width="63" height="71" viewBox="0 0 63 71" fill="none" xmlns="http://www.w3.org/2000/svg">
<path d="M0 70.9702H11.4545V28.9702H0V70.9702ZM63 32.4702C63 28.6202 60.4227 25.4702 57.2727 25.4702H39.2032L41.9236 9.47521L42.0095 8.35521C42.0095 6.92021 41.5227 5.59021 40.7495 4.64521L37.7141 0.970215L18.8714 24.0352C17.8118 25.2952 17.1818 27.0452 17.1818 28.9702V63.9702C17.1818 67.8202 19.7591 70.9702 22.9091 70.9702H48.6818C51.0586 70.9702 53.0918 69.2202 53.9509 66.7002L62.5991 42.0252C62.8568 41.2202 63 40.3802 63 39.4702V32.4702Z" fill="white"/>
</svg>
